{
    "asset" : {
        "generator" : "Khronos glTF Blender I/O v1.6.16",
        "version" : "2.0"
    },
    "scene" : 0,
    "scenes" : [
        {
            "name" : "Scene",
            "nodes" : [
                2
            ]
        }
    ],
    "nodes" : [
        {
            "mesh" : 0,
            "name" : "001_SteeringWheel_common_general",
            "rotation" : [
                0,
                0,
                -0.00026878720382228494,
                1
            ]
        },
        {
            "children" : [
                0
            ],
            "name" : "Pivot_SteeringWheel"
        },
        {
            "children" : [
                1
            ],
            "name" : "SteeringWheel",
            "rotation" : [
                0,
                0,
                0.21329301595687866,
                0.9769883751869202
            ],
            "translation" : [
                112.24170684814453,
                71.88685607910156,
                39.81187057495117
            ]
        }
    ],
    "materials" : [
        {
            "doubleSided" : true,
            "name" : "M_I_common_general",
            "pbrMetallicRoughness" : {
                "baseColorFactor" : [
                    0.0032274401746690273,
                    0.0032123755663633347,
                    0.0031628913711756468,
                    1
                ],
                "roughnessFactor" : 0.3675444722175598
            }
        }
    ],
    "meshes" : [
        {
            "name" : "SteeringWheel_common_general_MeshData",
            "primitives" : [
                {
                    "attributes" : {
                        "POSITION" : 0,
                        "NORMAL" : 1,
                        "TANGENT" : 2,
                        "TEXCOORD_0" : 3,
                        "COLOR_0" : 4
                    },
                    "indices" : 5,
                    "material" : 0
                }
            ]
        }
    ],
    "accessors" : [
        {
            "bufferView" : 0,
            "componentType" : 5126,
            "count" : 7854,
            "max" : [
                3.8579306602478027,
                19.827537536621094,
                18.944665908813477
            ],
            "min" : [
                -6.109317302703857,
                -18.198528289794922,
                -18.944665908813477
            ],
            "type" : "VEC3"
        },
        {
            "bufferView" : 1,
            "componentType" : 5126,
            "count" : 7854,
            "type" : "VEC3"
        },
        {
            "bufferView" : 2,
            "componentType" : 5126,
            "count" : 7854,
            "type" : "VEC4"
        },
        {
            "bufferView" : 3,
            "componentType" : 5126,
            "count" : 7854,
            "type" : "VEC2"
        },
        {
            "bufferView" : 4,
            "componentType" : 5123,
            "count" : 7854,
            "normalized" : true,
            "type" : "VEC4"
        },
        {
            "bufferView" : 5,
            "componentType" : 5123,
            "count" : 9990,
            "type" : "SCALAR"
        }
    ],
    "bufferViews" : [
        {
            "buffer" : 0,
            "byteLength" : 94248,
            "byteOffset" : 0
        },
        {
            "buffer" : 0,
            "byteLength" : 94248,
            "byteOffset" : 94248
        },
        {
            "buffer" : 0,
            "byteLength" : 125664,
            "byteOffset" : 188496
        },
        {
            "buffer" : 0,
            "byteLength" : 62832,
            "byteOffset" : 314160
        },
        {
            "buffer" : 0,
            "byteLength" : 62832,
            "byteOffset" : 376992
        },
        {
            "buffer" : 0,
            "byteLength" : 19980,
            "byteOffset" : 439824
        }
    ],
    "buffers" : [
        {
            "byteLength" : 459804,
            "uri" : "data:application/octet-stream;base64,"
        }
    ]
}
