{
    "asset" : {
        "generator" : "Khronos glTF Blender I/O v1.6.16",
        "version" : "2.0"
    },
    "extensionsUsed" : [
        "KHR_materials_clearcoat"
    ],
    "scene" : 0,
    "scenes" : [
        {
            "name" : "Scene",
            "nodes" : [
                4
            ]
        }
    ],
    "nodes" : [
        {
            "mesh" : 0,
            "name" : "001_Hood_paint",
            "translation" : [
                3.814697265625e-06,
                0,
                0
            ]
        },
        {
            "mesh" : 1,
            "name" : "002_Hood_interior"
        },
        {
            "mesh" : 2,
            "name" : "003_Hood_void"
        },
        {
            "children" : [
                0,
                1,
                2
            ],
            "name" : "Pivot_Hood"
        },
        {
            "children" : [
                3
            ],
            "name" : "Hood",
            "translation" : [
                32.648193359375,
                80.00674438476562,
                0
            ]
        }
    ],
    "materials" : [
        {
            "doubleSided" : true,
            "extensions" : {
                "KHR_materials_clearcoat" : {
                    "clearcoatFactor" : 0.8083333373069763,
                    "clearcoatRoughnessFactor" : 0.03999999910593033
                }
            },
            "name" : "M_E_common_Paint",
            "pbrMetallicRoughness" : {
                "baseColorFactor" : [
                    0.963880717754364,
                    0,
                    0.003722506808117032,
                    1
                ],
                "roughnessFactor" : 0.10000000149011612
            }
        },
        {
            "doubleSided" : true,
            "name" : "M_I_common_general",
            "pbrMetallicRoughness" : {
                "baseColorFactor" : [
                    0.009018095210194588,
                    0.009018095210194588,
                    0.009018095210194588,
                    1
                ],
                "metallicFactor" : 0,
                "roughnessFactor" : 0.5
            }
        },
        {
            "doubleSided" : true,
            "name" : "M_none",
            "pbrMetallicRoughness" : {
                "baseColorFactor" : [
                    0.009018095210194588,
                    0.009018095210194588,
                    0.009018095210194588,
                    1
                ],
                "metallicFactor" : 0,
                "roughnessFactor" : 0.5
            }
        }
    ],
    "meshes" : [
        {
            "name" : "Hood_paint_MeshData",
            "primitives" : [
                {
                    "attributes" : {
                        "POSITION" : 0,
                        "NORMAL" : 1,
                        "TANGENT" : 2,
                        "TEXCOORD_0" : 3,
                        "COLOR_0" : 4
                    },
                    "indices" : 5,
                    "material" : 0
                }
            ]
        },
        {
            "name" : "Hood_interior_MeshData",
            "primitives" : [
                {
                    "attributes" : {
                        "POSITION" : 6,
                        "NORMAL" : 7,
                        "TANGENT" : 8,
                        "TEXCOORD_0" : 9,
                        "COLOR_0" : 10
                    },
                    "indices" : 11,
                    "material" : 1
                }
            ]
        },
        {
            "name" : "Hood_void_MeshData",
            "primitives" : [
                {
                    "attributes" : {
                        "POSITION" : 12,
                        "NORMAL" : 13,
                        "TANGENT" : 14,
                        "TEXCOORD_0" : 15
                    },
                    "indices" : 16,
                    "material" : 2
                }
            ]
        }
    ],
    "accessors" : [
        {
            "bufferView" : 0,
            "componentType" : 5126,
            "count" : 1768,
            "max" : [
                21.25433349609375,
                -0.11272430419921875,
                83.07914733886719
            ],
            "min" : [
                -125.33628845214844,
                -31.68700408935547,
                -0.002060413360595703
            ],
            "type" : "VEC3"
        },
        {
            "bufferView" : 1,
            "componentType" : 5126,
            "count" : 1768,
            "type" : "VEC3"
        },
        {
            "bufferView" : 2,
            "componentType" : 5126,
            "count" : 1768,
            "type" : "VEC4"
        },
        {
            "bufferView" : 3,
            "componentType" : 5126,
            "count" : 1768,
            "type" : "VEC2"
        },
        {
            "bufferView" : 4,
            "componentType" : 5123,
            "count" : 1768,
            "normalized" : true,
            "type" : "VEC4"
        },
        {
            "bufferView" : 5,
            "componentType" : 5123,
            "count" : 7263,
            "type" : "SCALAR"
        },
        {
            "bufferView" : 6,
            "componentType" : 5126,
            "count" : 2219,
            "max" : [
                20.215042114257812,
                -0.5139999389648438,
                82.1679916381836
            ],
            "min" : [
                -124.7779769897461,
                -33.011505126953125,
                -82.1679916381836
            ],
            "type" : "VEC3"
        },
        {
            "bufferView" : 7,
            "componentType" : 5126,
            "count" : 2219,
            "type" : "VEC3"
        },
        {
            "bufferView" : 8,
            "componentType" : 5126,
            "count" : 2219,
            "type" : "VEC4"
        },
        {
            "bufferView" : 9,
            "componentType" : 5126,
            "count" : 2219,
            "type" : "VEC2"
        },
        {
            "bufferView" : 10,
            "componentType" : 5123,
            "count" : 2219,
            "normalized" : true,
            "type" : "VEC4"
        },
        {
            "bufferView" : 11,
            "componentType" : 5123,
            "count" : 7272,
            "type" : "SCALAR"
        },
        {
            "bufferView" : 12,
            "componentType" : 5126,
            "count" : 159,
            "max" : [
                21.4637451171875,
                -0.11328125,
                83.07566833496094
            ],
            "min" : [
                -125.33549499511719,
                -32.49312973022461,
                -83.07501220703125
            ],
            "type" : "VEC3"
        },
        {
            "bufferView" : 13,
            "componentType" : 5126,
            "count" : 159,
            "type" : "VEC3"
        },
        {
            "bufferView" : 14,
            "componentType" : 5126,
            "count" : 159,
            "type" : "VEC4"
        },
        {
            "bufferView" : 15,
            "componentType" : 5126,
            "count" : 159,
            "type" : "VEC2"
        },
        {
            "bufferView" : 16,
            "componentType" : 5123,
            "count" : 822,
            "type" : "SCALAR"
        }
    ],
    "bufferViews" : [
        {
            "buffer" : 0,
            "byteLength" : 21216,
            "byteOffset" : 0
        },
        {
            "buffer" : 0,
            "byteLength" : 21216,
            "byteOffset" : 21216
        },
        {
            "buffer" : 0,
            "byteLength" : 28288,
            "byteOffset" : 42432
        },
        {
            "buffer" : 0,
            "byteLength" : 14144,
            "byteOffset" : 70720
        },
        {
            "buffer" : 0,
            "byteLength" : 14144,
            "byteOffset" : 84864
        },
        {
            "buffer" : 0,
            "byteLength" : 14526,
            "byteOffset" : 99008
        },
        {
            "buffer" : 0,
            "byteLength" : 26628,
            "byteOffset" : 113536
        },
        {
            "buffer" : 0,
            "byteLength" : 26628,
            "byteOffset" : 140164
        },
        {
            "buffer" : 0,
            "byteLength" : 35504,
            "byteOffset" : 166792
        },
        {
            "buffer" : 0,
            "byteLength" : 17752,
            "byteOffset" : 202296
        },
        {
            "buffer" : 0,
            "byteLength" : 17752,
            "byteOffset" : 220048
        },
        {
            "buffer" : 0,
            "byteLength" : 14544,
            "byteOffset" : 237800
        },
        {
            "buffer" : 0,
            "byteLength" : 1908,
            "byteOffset" : 252344
        },
        {
            "buffer" : 0,
            "byteLength" : 1908,
            "byteOffset" : 254252
        },
        {
            "buffer" : 0,
            "byteLength" : 2544,
            "byteOffset" : 256160
        },
        {
            "buffer" : 0,
            "byteLength" : 1272,
            "byteOffset" : 258704
        },
        {
            "buffer" : 0,
            "byteLength" : 1644,
            "byteOffset" : 259976
        }
    ],
    "buffers" : [
        {
            "byteLength" : 261620,
            "uri" : "data:application/octet-stream;base64,"
        }
    ]
}
