{
    "asset" : {
        "generator" : "Khronos glTF Blender I/O v1.6.16",
        "version" : "2.0"
    },
    "scene" : 0,
    "scenes" : [
        {
            "name" : "Scene",
            "nodes" : [
                3
            ]
        }
    ],
    "nodes" : [
        {
            "mesh" : 0,
            "name" : "001_Emblem_Shadow"
        },
        {
            "mesh" : 1,
            "name" : "002_Emblem_Base"
        },
        {
            "children" : [
                0,
                1
            ],
            "name" : "Pivot_Emblem"
        },
        {
            "children" : [
                2
            ],
            "name" : "Emblem"
        }
    ],
    "materials" : [
        {
            "doubleSided" : true,
            "name" : "M_E_common_Emblem",
            "pbrMetallicRoughness" : {
                "metallicFactor" : 0,
                "roughnessFactor" : 0.5
            }
        }
    ],
    "meshes" : [
        {
            "name" : "Emblem_Shadow_MeshData",
            "primitives" : [
                {
                    "attributes" : {
                        "POSITION" : 0,
                        "NORMAL" : 1,
                        "TANGENT" : 2,
                        "TEXCOORD_0" : 3
                    },
                    "indices" : 4
                }
            ]
        },
        {
            "name" : "Emblem_Base_MeshData",
            "primitives" : [
                {
                    "attributes" : {
                        "POSITION" : 5,
                        "NORMAL" : 6,
                        "TANGENT" : 7,
                        "TEXCOORD_0" : 8,
                        "COLOR_0" : 9
                    },
                    "indices" : 10,
                    "material" : 0
                }
            ]
        }
    ],
    "accessors" : [
        {
            "bufferView" : 0,
            "componentType" : 5126,
            "count" : 128,
            "max" : [
                7.369853496551514,
                -1.2792497873306274,
                7.369854927062988
            ],
            "min" : [
                -7.369853973388672,
                -1.401764988899231,
                -7.3698530197143555
            ],
            "type" : "VEC3"
        },
        {
            "bufferView" : 1,
            "componentType" : 5126,
            "count" : 128,
            "type" : "VEC3"
        },
        {
            "bufferView" : 2,
            "componentType" : 5126,
            "count" : 128,
            "type" : "VEC4"
        },
        {
            "bufferView" : 3,
            "componentType" : 5126,
            "count" : 128,
            "type" : "VEC2"
        },
        {
            "bufferView" : 4,
            "componentType" : 5123,
            "count" : 192,
            "type" : "SCALAR"
        },
        {
            "bufferView" : 5,
            "componentType" : 5126,
            "count" : 189,
            "max" : [
                4.051564693450928,
                0.6362590789794922,
                4.051565647125244
            ],
            "min" : [
                -4.0515666007995605,
                -1.2356595993041992,
                -4.051565647125244
            ],
            "type" : "VEC3"
        },
        {
            "bufferView" : 6,
            "componentType" : 5126,
            "count" : 189,
            "type" : "VEC3"
        },
        {
            "bufferView" : 7,
            "componentType" : 5126,
            "count" : 189,
            "type" : "VEC4"
        },
        {
            "bufferView" : 8,
            "componentType" : 5126,
            "count" : 189,
            "type" : "VEC2"
        },
        {
            "bufferView" : 9,
            "componentType" : 5126,
            "count" : 189,
            "type" : "VEC4"
        },
        {
            "bufferView" : 10,
            "componentType" : 5123,
            "count" : 528,
            "type" : "SCALAR"
        }
    ],
    "bufferViews" : [
        {
            "buffer" : 0,
            "byteLength" : 1536,
            "byteOffset" : 0
        },
        {
            "buffer" : 0,
            "byteLength" : 1536,
            "byteOffset" : 1536
        },
        {
            "buffer" : 0,
            "byteLength" : 2048,
            "byteOffset" : 3072
        },
        {
            "buffer" : 0,
            "byteLength" : 1024,
            "byteOffset" : 5120
        },
        {
            "buffer" : 0,
            "byteLength" : 384,
            "byteOffset" : 6144
        },
        {
            "buffer" : 0,
            "byteLength" : 2268,
            "byteOffset" : 6528
        },
        {
            "buffer" : 0,
            "byteLength" : 2268,
            "byteOffset" : 8796
        },
        {
            "buffer" : 0,
            "byteLength" : 3024,
            "byteOffset" : 11064
        },
        {
            "buffer" : 0,
            "byteLength" : 1512,
            "byteOffset" : 14088
        },
        {
            "buffer" : 0,
            "byteLength" : 3024,
            "byteOffset" : 15600
        },
        {
            "buffer" : 0,
            "byteLength" : 1056,
            "byteOffset" : 18624
        }
    ],
    "buffers" : [
        {
            "byteLength" : 19680,
            "uri" : "data:application/octet-stream;base64,"
        }
    ]
}
