{
    "asset" : {
        "generator" : "Khronos glTF Blender I/O v1.6.16",
        "version" : "2.0"
    },
    "scene" : 0,
    "scenes" : [
        {
            "name" : "Scene",
            "nodes" : [
                0,
                1,
                2,
                3
            ]
        }
    ],
    "nodes" : [
        {
            "mesh" : 0,
            "name" : "LicensePlate_F",
            "translation" : [
                -94.77479553222656,
                14.141697883605957,
                0
            ]
        },
        {
            "mesh" : 1,
            "name" : "LicensePlate_F_Frame",
            "translation" : [
                -94.77479553222656,
                14.141697883605957,
                0
            ]
        },
        {
            "mesh" : 2,
            "name" : "LicensePlate_B",
            "translation" : [
                386.1128845214844,
                57.290565490722656,
                0
            ]
        },
        {
            "mesh" : 3,
            "name" : "LicensePlate_B_Frame",
            "translation" : [
                386.1128845214844,
                57.290565490722656,
                0
            ]
        }
    ],
    "materials" : [
        {
            "doubleSided" : true,
            "name" : "M_E_ParadoxCat_LicensePlate",
            "pbrMetallicRoughness" : {
                "roughnessFactor" : 0.5527864098548889
            }
        },
        {
            "doubleSided" : true,
            "name" : "M_E_common_Plastic_grained_black",
            "pbrMetallicRoughness" : {
                "baseColorFactor" : [
                    0.015325205400586128,
                    0.015325205400586128,
                    0.015325205400586128,
                    1
                ],
                "roughnessFactor" : 0.5527864098548889
            }
        }
    ],
    "meshes" : [
        {
            "name" : "LicensePlate_F_MeshData",
            "primitives" : [
                {
                    "attributes" : {
                        "POSITION" : 0,
                        "NORMAL" : 1,
                        "TEXCOORD_0" : 2,
                        "COLOR_0" : 3
                    },
                    "indices" : 4,
                    "material" : 0
                }
            ]
        },
        {
            "name" : "LicensePlate_F_Frame_MeshData",
            "primitives" : [
                {
                    "attributes" : {
                        "POSITION" : 5,
                        "NORMAL" : 6,
                        "TEXCOORD_0" : 7,
                        "COLOR_0" : 8
                    },
                    "indices" : 9,
                    "material" : 1
                }
            ]
        },
        {
            "name" : "LicensePlate_B_MeshData",
            "primitives" : [
                {
                    "attributes" : {
                        "POSITION" : 10,
                        "NORMAL" : 11,
                        "TEXCOORD_0" : 12,
                        "COLOR_0" : 13
                    },
                    "indices" : 14,
                    "material" : 0
                }
            ]
        },
        {
            "name" : "LicensePlate_B_Frame_MeshData",
            "primitives" : [
                {
                    "attributes" : {
                        "POSITION" : 15,
                        "NORMAL" : 16,
                        "COLOR_0" : 17
                    },
                    "indices" : 18,
                    "material" : 1
                }
            ]
        }
    ],
    "accessors" : [
        {
            "bufferView" : 0,
            "componentType" : 5126,
            "count" : 61,
            "max" : [
                0.982254683971405,
                5.744577407836914,
                25.953794479370117
            ],
            "min" : [
                -0.4829360842704773,
                -5.2596917152404785,
                -25.953794479370117
            ],
            "type" : "VEC3"
        },
        {
            "bufferView" : 1,
            "componentType" : 5126,
            "count" : 61,
            "type" : "VEC3"
        },
        {
            "bufferView" : 2,
            "componentType" : 5126,
            "count" : 61,
            "type" : "VEC2"
        },
        {
            "bufferView" : 3,
            "componentType" : 5123,
            "count" : 61,
            "normalized" : true,
            "type" : "VEC4"
        },
        {
            "bufferView" : 4,
            "componentType" : 5123,
            "count" : 246,
            "type" : "SCALAR"
        },
        {
            "bufferView" : 5,
            "componentType" : 5126,
            "count" : 488,
            "max" : [
                4.239837646484375,
                5.910645484924316,
                26.36980628967285
            ],
            "min" : [
                -0.28293609619140625,
                -5.987725257873535,
                -26.36980628967285
            ],
            "type" : "VEC3"
        },
        {
            "bufferView" : 6,
            "componentType" : 5126,
            "count" : 488,
            "type" : "VEC3"
        },
        {
            "bufferView" : 7,
            "componentType" : 5126,
            "count" : 488,
            "type" : "VEC2"
        },
        {
            "bufferView" : 8,
            "componentType" : 5123,
            "count" : 488,
            "normalized" : true,
            "type" : "VEC4"
        },
        {
            "bufferView" : 9,
            "componentType" : 5123,
            "count" : 924,
            "type" : "SCALAR"
        },
        {
            "bufferView" : 10,
            "componentType" : 5126,
            "count" : 59,
            "max" : [
                1.8218274116516113,
                5.900350570678711,
                26.04718780517578
            ],
            "min" : [
                -2.3983120918273926,
                -5.030510425567627,
                -26.04718780517578
            ],
            "type" : "VEC3"
        },
        {
            "bufferView" : 11,
            "componentType" : 5126,
            "count" : 59,
            "type" : "VEC3"
        },
        {
            "bufferView" : 12,
            "componentType" : 5126,
            "count" : 59,
            "type" : "VEC2"
        },
        {
            "bufferView" : 13,
            "componentType" : 5123,
            "count" : 59,
            "normalized" : true,
            "type" : "VEC4"
        },
        {
            "bufferView" : 14,
            "componentType" : 5123,
            "count" : 240,
            "type" : "SCALAR"
        },
        {
            "bufferView" : 15,
            "componentType" : 5126,
            "count" : 497,
            "max" : [
                1.6716256141662598,
                5.872568607330322,
                26.425743103027344
            ],
            "min" : [
                -3.664454936981201,
                -6.538089752197266,
                -26.425743103027344
            ],
            "type" : "VEC3"
        },
        {
            "bufferView" : 16,
            "componentType" : 5126,
            "count" : 497,
            "type" : "VEC3"
        },
        {
            "bufferView" : 17,
            "componentType" : 5123,
            "count" : 497,
            "normalized" : true,
            "type" : "VEC4"
        },
        {
            "bufferView" : 18,
            "componentType" : 5123,
            "count" : 915,
            "type" : "SCALAR"
        }
    ],
    "bufferViews" : [
        {
            "buffer" : 0,
            "byteLength" : 732,
            "byteOffset" : 0
        },
        {
            "buffer" : 0,
            "byteLength" : 732,
            "byteOffset" : 732
        },
        {
            "buffer" : 0,
            "byteLength" : 488,
            "byteOffset" : 1464
        },
        {
            "buffer" : 0,
            "byteLength" : 488,
            "byteOffset" : 1952
        },
        {
            "buffer" : 0,
            "byteLength" : 492,
            "byteOffset" : 2440
        },
        {
            "buffer" : 0,
            "byteLength" : 5856,
            "byteOffset" : 2932
        },
        {
            "buffer" : 0,
            "byteLength" : 5856,
            "byteOffset" : 8788
        },
        {
            "buffer" : 0,
            "byteLength" : 3904,
            "byteOffset" : 14644
        },
        {
            "buffer" : 0,
            "byteLength" : 3904,
            "byteOffset" : 18548
        },
        {
            "buffer" : 0,
            "byteLength" : 1848,
            "byteOffset" : 22452
        },
        {
            "buffer" : 0,
            "byteLength" : 708,
            "byteOffset" : 24300
        },
        {
            "buffer" : 0,
            "byteLength" : 708,
            "byteOffset" : 25008
        },
        {
            "buffer" : 0,
            "byteLength" : 472,
            "byteOffset" : 25716
        },
        {
            "buffer" : 0,
            "byteLength" : 472,
            "byteOffset" : 26188
        },
        {
            "buffer" : 0,
            "byteLength" : 480,
            "byteOffset" : 26660
        },
        {
            "buffer" : 0,
            "byteLength" : 5964,
            "byteOffset" : 27140
        },
        {
            "buffer" : 0,
            "byteLength" : 5964,
            "byteOffset" : 33104
        },
        {
            "buffer" : 0,
            "byteLength" : 3976,
            "byteOffset" : 39068
        },
        {
            "buffer" : 0,
            "byteLength" : 1830,
            "byteOffset" : 43044
        }
    ],
    "buffers" : [
        {
            "byteLength" : 44876,
            "uri" : "data:application/octet-stream;base64,"
        }
    ]
}
